<mxfile host="Electron" modified="2023-08-01T17:22:34.875Z" agent="Mozilla/5.0 (Macintosh; Intel Mac OS X 10_15_7) AppleWebKit/537.36 (KHTML, like Gecko) draw.io/21.6.5 Chrome/114.0.5735.243 Electron/25.3.1 Safari/537.36" etag="7oPJutyyw8vntz6xifuk" version="21.6.5" type="device">
  <diagram name="Page-1" id="n5Qb5iA8dRXw3r0Tk5m8">
    <mxGraphModel dx="2430" dy="923" grid="0" gridSize="10" guides="1" tooltips="1" connect="1" arrows="1" fold="1" page="0" pageScale="1" pageWidth="850" pageHeight="1100" math="0" shadow="0">
      <root>
        <mxCell id="0" />
        <mxCell id="1" parent="0" />
        <mxCell id="120" value="Frank DMZ Network" style="shape=mxgraph.ibm.box;prType=enterprise;fontStyle=0;verticalAlign=top;align=left;spacingLeft=32;spacingTop=4;fillColor=none;rounded=0;whiteSpace=wrap;html=1;strokeColor=#FF8000;strokeWidth=3;dashed=0;container=1;spacing=-4;collapsible=0;expand=0;recursiveResize=0;" parent="1" vertex="1">
          <mxGeometry x="-180" y="44" width="493" height="239.5" as="geometry" />
        </mxCell>
        <mxCell id="121" value="User Nextcloud Client" style="shape=image;verticalLabelPosition=bottom;labelBackgroundColor=default;verticalAlign=top;aspect=fixed;imageAspect=0;image=https://static-00.iconduck.com/assets.00/nextcloud-icon-512x512-quluhp24.png;" parent="120" vertex="1">
          <mxGeometry x="83.5" y="133.5" width="50" height="50" as="geometry" />
        </mxCell>
        <mxCell id="123" value="User RDP Client&lt;br&gt;" style="sketch=0;aspect=fixed;html=1;points=[];align=center;image;fontSize=12;image=img/lib/mscae/VirtualMachineWindows.svg;" parent="120" vertex="1">
          <mxGeometry x="306" y="135.5" width="50" height="46" as="geometry" />
        </mxCell>
        <mxCell id="Xi0OJc3CzYUvT2jzZGl6-115" value="Public Internet" style="shape=mxgraph.ibm.box;prType=cloud;fontStyle=0;verticalAlign=top;align=left;spacingLeft=32;spacingTop=4;fillColor=none;rounded=0;whiteSpace=wrap;html=1;strokeColor=#FF0800;strokeWidth=3;dashed=0;container=1;spacing=-4;collapsible=0;expand=0;recursiveResize=0;" parent="1" vertex="1">
          <mxGeometry x="-1154" y="-208" width="1572" height="843" as="geometry" />
        </mxCell>
        <mxCell id="Xi0OJc3CzYUvT2jzZGl6-119" value="" style="group" parent="Xi0OJc3CzYUvT2jzZGl6-115" vertex="1" connectable="0">
          <mxGeometry x="433.5" y="16" width="60" height="60" as="geometry" />
        </mxCell>
        <mxCell id="Zk3EBVXWUtb9SHXZOmo2-37" value="&lt;font&gt;Employee&amp;nbsp;Device&lt;br&gt;(client support for iOS, Android, Windows, Linux, OSX)&lt;br&gt;&lt;/font&gt;" style="image;aspect=fixed;perimeter=ellipsePerimeter;html=1;align=center;shadow=0;dashed=0;fontColor=default;labelBackgroundColor=none;fontSize=12;spacingTop=3;image=img/lib/ibm/users/device.svg;" parent="Xi0OJc3CzYUvT2jzZGl6-119" vertex="1">
          <mxGeometry width="60" height="60" as="geometry" />
        </mxCell>
        <mxCell id="72" value="" style="aspect=fixed;perimeter=ellipsePerimeter;html=1;align=center;shadow=0;dashed=0;fontColor=default;labelBackgroundColor=none;fontSize=12;spacingTop=3;image;image=img/lib/ibm/users/browser.svg;" parent="Xi0OJc3CzYUvT2jzZGl6-119" vertex="1">
          <mxGeometry width="60" height="60" as="geometry" />
        </mxCell>
        <mxCell id="135" value="" style="group" parent="Xi0OJc3CzYUvT2jzZGl6-115" vertex="1" connectable="0">
          <mxGeometry x="1202.5" y="12" width="60" height="60" as="geometry" />
        </mxCell>
        <mxCell id="136" value="&lt;font&gt;Frank Device&lt;br&gt;(client support for iOS, Android, Windows, Linux, OSX)&lt;br&gt;&lt;/font&gt;" style="image;aspect=fixed;perimeter=ellipsePerimeter;html=1;align=center;shadow=0;dashed=0;fontColor=default;labelBackgroundColor=none;fontSize=12;spacingTop=3;image=img/lib/ibm/users/device.svg;" parent="135" vertex="1">
          <mxGeometry width="60" height="60" as="geometry" />
        </mxCell>
        <mxCell id="137" value="" style="aspect=fixed;perimeter=ellipsePerimeter;html=1;align=center;shadow=0;dashed=0;fontColor=default;labelBackgroundColor=none;fontSize=12;spacingTop=3;image;image=img/lib/ibm/users/browser.svg;" parent="135" vertex="1">
          <mxGeometry width="60" height="60" as="geometry" />
        </mxCell>
        <mxCell id="Xi0OJc3CzYUvT2jzZGl6-113" value="ALTERNcloud Technical/Political/Jurisdictional Redundancy" style="shape=mxgraph.ibm.box;prType=region;fontStyle=0;verticalAlign=top;align=left;spacingLeft=32;spacingTop=4;fillColor=none;rounded=0;whiteSpace=wrap;html=1;strokeColor=#990000;strokeWidth=3;dashed=0;container=1;spacing=-4;collapsible=0;expand=0;recursiveResize=0;" parent="1" vertex="1">
          <mxGeometry x="-1117" y="-76" width="1504" height="694" as="geometry" />
        </mxCell>
        <mxCell id="Xi0OJc3CzYUvT2jzZGl6-114" value="ALTERNcloud Automated On-Site DDoS Protection" style="shape=mxgraph.ibm.box;prType=classic;fontStyle=0;verticalAlign=top;align=left;spacingLeft=32;spacingTop=4;fillColor=none;rounded=0;whiteSpace=wrap;html=1;strokeColor=#990000;strokeWidth=3;dashed=0;container=1;spacing=-4;collapsible=0;expand=0;recursiveResize=0;" parent="Xi0OJc3CzYUvT2jzZGl6-113" vertex="1">
          <mxGeometry x="27" y="38" width="1451" height="639" as="geometry" />
        </mxCell>
        <mxCell id="Xi0OJc3CzYUvT2jzZGl6-110" value="ALTERNcloud VPC" style="shape=mxgraph.ibm.box;prType=vpc;fontStyle=0;verticalAlign=top;align=left;spacingLeft=32;spacingTop=4;fillColor=none;rounded=0;whiteSpace=wrap;html=1;strokeColor=#990000;strokeWidth=3;dashed=0;container=1;spacing=-4;collapsible=0;expand=0;recursiveResize=0;" parent="1" vertex="1">
          <mxGeometry x="-1058" y="4" width="1397" height="583" as="geometry" />
        </mxCell>
        <mxCell id="95" value="Employee Internal Network" style="shape=mxgraph.ibm.box;prType=enterprise;fontStyle=0;verticalAlign=top;align=left;spacingLeft=32;spacingTop=4;fillColor=none;rounded=0;whiteSpace=wrap;html=1;strokeColor=#3700CC;strokeWidth=3;dashed=0;container=0;spacing=-4;collapsible=0;expand=0;recursiveResize=0;fontColor=default;" parent="Xi0OJc3CzYUvT2jzZGl6-110" vertex="1">
          <mxGeometry x="17.5" y="301" width="753.5" height="270" as="geometry" />
        </mxCell>
        <mxCell id="142" style="edgeStyle=none;html=1;exitX=0;exitY=0.5;exitDx=0;exitDy=0;entryX=0.5;entryY=1;entryDx=0;entryDy=0;rounded=0;" parent="Xi0OJc3CzYUvT2jzZGl6-110" source="110" target="Zk3EBVXWUtb9SHXZOmo2-83" edge="1">
          <mxGeometry relative="1" as="geometry">
            <Array as="points">
              <mxPoint x="359" y="470" />
            </Array>
          </mxGeometry>
        </mxCell>
        <mxCell id="143" value="Outgoing&lt;br&gt;Connections" style="edgeLabel;html=1;align=center;verticalAlign=middle;resizable=0;points=[];" parent="142" vertex="1" connectable="0">
          <mxGeometry x="0.1154" y="2" relative="1" as="geometry">
            <mxPoint as="offset" />
          </mxGeometry>
        </mxCell>
        <mxCell id="146" style="edgeStyle=none;rounded=0;html=1;exitX=-0.003;exitY=0.695;exitDx=0;exitDy=0;entryX=1;entryY=0.5;entryDx=0;entryDy=0;startArrow=classic;startFill=1;exitPerimeter=0;" parent="Xi0OJc3CzYUvT2jzZGl6-110" source="110" target="21" edge="1">
          <mxGeometry relative="1" as="geometry" />
        </mxCell>
        <mxCell id="110" value="Windows Virtual Workstations" style="fontStyle=0;verticalAlign=top;align=center;spacingTop=-2;fillColor=none;rounded=0;whiteSpace=wrap;html=1;strokeColor=#4376BB;strokeWidth=1;dashed=0;container=1;collapsible=0;expand=0;recursiveResize=0;" parent="Xi0OJc3CzYUvT2jzZGl6-110" vertex="1">
          <mxGeometry x="381" y="388" width="371" height="164" as="geometry" />
        </mxCell>
        <mxCell id="111" value="SAGE&lt;br&gt;Workstation" style="sketch=0;aspect=fixed;html=1;points=[];align=center;image;fontSize=12;image=img/lib/mscae/VM_Windows_Non_Azure.svg;strokeColor=#0F5FFF;fillColor=none;" parent="110" vertex="1">
          <mxGeometry x="50" y="49" width="50" height="46" as="geometry" />
        </mxCell>
        <mxCell id="113" value="User2&lt;br&gt;Workstation" style="sketch=0;aspect=fixed;html=1;points=[];align=center;image;fontSize=12;image=img/lib/mscae/VM_Windows_Non_Azure.svg;strokeColor=#0F5FFF;fillColor=none;" parent="110" vertex="1">
          <mxGeometry x="265" y="49" width="50" height="46" as="geometry" />
        </mxCell>
        <mxCell id="112" value="User1&lt;br&gt;Workstation" style="sketch=0;aspect=fixed;html=1;points=[];align=center;image;fontSize=12;image=img/lib/mscae/VM_Windows_Non_Azure.svg;strokeColor=#0F5FFF;fillColor=none;" parent="110" vertex="1">
          <mxGeometry x="160.5" y="49" width="50" height="46" as="geometry" />
        </mxCell>
        <mxCell id="Xi0OJc3CzYUvT2jzZGl6-96" value="Employee DMZ Network" style="shape=mxgraph.ibm.box;prType=enterprise;fontStyle=0;verticalAlign=top;align=left;spacingLeft=32;spacingTop=4;fillColor=none;rounded=0;whiteSpace=wrap;html=1;strokeColor=#FF8000;strokeWidth=3;dashed=0;container=1;spacing=-4;collapsible=0;expand=0;recursiveResize=0;" parent="Xi0OJc3CzYUvT2jzZGl6-110" vertex="1">
          <mxGeometry x="17.5" y="38.5" width="750.5" height="239.5" as="geometry" />
        </mxCell>
        <mxCell id="Zk3EBVXWUtb9SHXZOmo2-38" value="User Nextcloud Client" style="shape=image;verticalLabelPosition=bottom;labelBackgroundColor=default;verticalAlign=top;aspect=fixed;imageAspect=0;image=https://static-00.iconduck.com/assets.00/nextcloud-icon-512x512-quluhp24.png;" parent="Xi0OJc3CzYUvT2jzZGl6-96" vertex="1">
          <mxGeometry x="83.5" y="133.5" width="50" height="50" as="geometry" />
        </mxCell>
        <mxCell id="77" value="User RDP Client&lt;br&gt;" style="sketch=0;aspect=fixed;html=1;points=[];align=center;image;fontSize=12;image=img/lib/mscae/VirtualMachineWindows.svg;" parent="Xi0OJc3CzYUvT2jzZGl6-96" vertex="1">
          <mxGeometry x="533.5" y="129.5" width="50" height="46" as="geometry" />
        </mxCell>
        <mxCell id="Zk3EBVXWUtb9SHXZOmo2-83" value="&lt;font&gt;Proxy/firewall&lt;/font&gt;" style="image;aspect=fixed;perimeter=ellipsePerimeter;html=1;align=center;shadow=0;dashed=0;fontColor=default;labelBackgroundColor=none;fontSize=12;spacingTop=3;image=img/lib/ibm/vpc/Instance.svg;" parent="Xi0OJc3CzYUvT2jzZGl6-96" vertex="1">
          <mxGeometry x="318.5" y="122.5" width="45" height="45" as="geometry" />
        </mxCell>
        <mxCell id="114" style="edgeStyle=none;html=1;exitX=0.25;exitY=1;exitDx=0;exitDy=0;entryX=0.5;entryY=0;entryDx=0;entryDy=0;" parent="Xi0OJc3CzYUvT2jzZGl6-110" source="91" target="110" edge="1">
          <mxGeometry relative="1" as="geometry" />
        </mxCell>
        <mxCell id="91" value="Windows Terminal Server" style="aspect=fixed;perimeter=ellipsePerimeter;html=1;align=center;shadow=0;dashed=0;spacingTop=3;image;image=img/lib/active_directory/windows_server_2.svg;strokeColor=#0F5FFF;" parent="Xi0OJc3CzYUvT2jzZGl6-110" vertex="1">
          <mxGeometry x="556" y="301" width="40" height="50" as="geometry" />
        </mxCell>
        <mxCell id="Xi0OJc3CzYUvT2jzZGl6-99" value="" style="shape=mxgraph.ibm.box;prType=public;fontStyle=0;verticalAlign=top;align=left;spacingLeft=32;spacingTop=4;fillColor=none;rounded=0;whiteSpace=wrap;html=1;strokeColor=#08A4FF;strokeWidth=3;dashed=0;container=1;spacing=-4;collapsible=0;expand=0;recursiveResize=0;" parent="Xi0OJc3CzYUvT2jzZGl6-110" vertex="1">
          <mxGeometry x="57" y="332" width="145" height="119" as="geometry" />
        </mxCell>
        <mxCell id="21" value="&lt;font&gt;ZK Encrypted&lt;br&gt;File Store&lt;br&gt;&lt;/font&gt;" style="aspect=fixed;perimeter=ellipsePerimeter;html=1;align=center;shadow=0;dashed=0;fontColor=default;labelBackgroundColor=none;fontSize=12;spacingTop=3;image;image=img/lib/ibm/data/data_services.svg;" parent="Xi0OJc3CzYUvT2jzZGl6-110" vertex="1">
          <mxGeometry x="101" y="477" width="50" height="50" as="geometry" />
        </mxCell>
        <mxCell id="44" style="edgeStyle=none;html=1;exitX=0.5;exitY=1;exitDx=0;exitDy=0;fontSize=12;fontColor=#FFFFFF;rounded=0;entryX=0.5;entryY=0;entryDx=0;entryDy=0;" parent="Xi0OJc3CzYUvT2jzZGl6-110" source="Zk3EBVXWUtb9SHXZOmo2-63" target="21" edge="1">
          <mxGeometry relative="1" as="geometry">
            <mxPoint x="277" y="488" as="targetPoint" />
          </mxGeometry>
        </mxCell>
        <mxCell id="Zk3EBVXWUtb9SHXZOmo2-63" value="Nextcloud Hub" style="shape=image;verticalLabelPosition=bottom;labelBackgroundColor=default;verticalAlign=top;aspect=fixed;imageAspect=0;image=https://static-00.iconduck.com/assets.00/nextcloud-icon-512x512-quluhp24.png;" parent="Xi0OJc3CzYUvT2jzZGl6-110" vertex="1">
          <mxGeometry x="101" y="371" width="50" height="50" as="geometry" />
        </mxCell>
        <mxCell id="Zk3EBVXWUtb9SHXZOmo2-94" style="edgeStyle=orthogonalEdgeStyle;rounded=0;orthogonalLoop=1;jettySize=auto;html=1;exitX=0.5;exitY=1;exitDx=0;exitDy=0;entryX=0.5;entryY=0;entryDx=0;entryDy=0;" parent="Xi0OJc3CzYUvT2jzZGl6-110" source="Zk3EBVXWUtb9SHXZOmo2-38" target="Zk3EBVXWUtb9SHXZOmo2-63" edge="1">
          <mxGeometry relative="1" as="geometry" />
        </mxCell>
        <mxCell id="3-xjpAz8GASwxe2ccpQj-71" value="User Login" style="edgeLabel;html=1;align=center;verticalAlign=middle;resizable=0;points=[];" parent="Zk3EBVXWUtb9SHXZOmo2-94" vertex="1" connectable="0">
          <mxGeometry x="0.205" y="1" relative="1" as="geometry">
            <mxPoint x="-1" y="-24" as="offset" />
          </mxGeometry>
        </mxCell>
        <mxCell id="Xi0OJc3CzYUvT2jzZGl6-94" value="Nextcloud Cluster" style="edgeLabel;html=1;align=center;verticalAlign=middle;resizable=0;points=[];" parent="Zk3EBVXWUtb9SHXZOmo2-94" vertex="1" connectable="0">
          <mxGeometry x="0.766" y="2" relative="1" as="geometry">
            <mxPoint x="2" y="-5" as="offset" />
          </mxGeometry>
        </mxCell>
        <mxCell id="Zk3EBVXWUtb9SHXZOmo2-47" value="&lt;font&gt;VPN Server&lt;br&gt;(VPN ingress only)&lt;br&gt;&lt;/font&gt;" style="image;aspect=fixed;perimeter=ellipsePerimeter;html=1;align=center;shadow=0;dashed=0;fontColor=default;labelBackgroundColor=none;fontSize=12;spacingTop=3;image=https://static-00.iconduck.com/assets.00/wireguard-icon-2048x2048-6w5jtt33.png;" parent="Xi0OJc3CzYUvT2jzZGl6-110" vertex="1">
          <mxGeometry x="345" y="19" width="45" height="45" as="geometry" />
        </mxCell>
        <mxCell id="122" value="&lt;font&gt;VPN Server&lt;br&gt;(VPN ingress only)&lt;br&gt;&lt;/font&gt;" style="image;aspect=fixed;perimeter=ellipsePerimeter;html=1;align=center;shadow=0;dashed=0;fontColor=default;labelBackgroundColor=none;fontSize=12;spacingTop=3;image=https://static-00.iconduck.com/assets.00/wireguard-icon-2048x2048-6w5jtt33.png;" parent="Xi0OJc3CzYUvT2jzZGl6-110" vertex="1">
          <mxGeometry x="1114" y="17" width="45" height="45" as="geometry" />
        </mxCell>
        <mxCell id="141" style="edgeStyle=none;html=1;entryX=0.5;entryY=0;entryDx=0;entryDy=0;" parent="Xi0OJc3CzYUvT2jzZGl6-110" source="77" target="91" edge="1">
          <mxGeometry relative="1" as="geometry" />
        </mxCell>
        <mxCell id="134" value="Frank VPN Network" style="shape=mxgraph.ibm.box;prType=subnet;fontStyle=0;verticalAlign=top;align=left;spacingLeft=32;spacingTop=4;fillColor=none;rounded=0;whiteSpace=wrap;html=1;strokeColor=#0A8F00;strokeWidth=3;dashed=0;container=0;spacing=-4;collapsible=0;expand=0;recursiveResize=0;" parent="1" vertex="1">
          <mxGeometry x="-150.5" y="142.5" width="446.5" height="122" as="geometry" />
        </mxCell>
        <mxCell id="Xi0OJc3CzYUvT2jzZGl6-103" value="Employee VPN Network" style="shape=mxgraph.ibm.box;prType=subnet;fontStyle=0;verticalAlign=top;align=left;spacingLeft=32;spacingTop=4;fillColor=none;rounded=0;whiteSpace=wrap;html=1;strokeColor=#0A8F00;strokeWidth=3;dashed=0;container=0;spacing=-4;collapsible=0;expand=0;recursiveResize=0;" parent="1" vertex="1">
          <mxGeometry x="-1011" y="124" width="696" height="139" as="geometry" />
        </mxCell>
        <mxCell id="13" style="edgeStyle=none;html=1;exitX=1;exitY=0.5;exitDx=0;exitDy=0;entryX=0;entryY=0.5;entryDx=0;entryDy=0;rounded=0;" parent="1" edge="1">
          <mxGeometry relative="1" as="geometry">
            <mxPoint x="-256.9999999999777" y="293.5" as="sourcePoint" />
          </mxGeometry>
        </mxCell>
        <mxCell id="Xi0OJc3CzYUvT2jzZGl6-109" value="" style="group" parent="1" vertex="1" connectable="0">
          <mxGeometry x="-1417" y="-202" width="229" height="152" as="geometry" />
        </mxCell>
        <mxCell id="Xi0OJc3CzYUvT2jzZGl6-104" value="" style="rounded=0;whiteSpace=wrap;html=1;strokeWidth=5;movable=1;resizable=1;rotatable=1;deletable=1;editable=1;locked=0;connectable=1;" parent="Xi0OJc3CzYUvT2jzZGl6-109" vertex="1">
          <mxGeometry x="18" width="211" height="152" as="geometry" />
        </mxCell>
        <mxCell id="Xi0OJc3CzYUvT2jzZGl6-105" value="Connection Types" style="text;html=1;strokeColor=none;fillColor=none;align=center;verticalAlign=middle;whiteSpace=wrap;rounded=0;fontSize=18;movable=1;resizable=1;rotatable=1;deletable=1;editable=1;locked=0;connectable=1;" parent="Xi0OJc3CzYUvT2jzZGl6-109" vertex="1">
          <mxGeometry width="191" height="30" as="geometry" />
        </mxCell>
        <mxCell id="Xi0OJc3CzYUvT2jzZGl6-106" value="E2E Encrypted" style="endArrow=none;html=1;rounded=0;endFill=0;movable=1;resizable=1;rotatable=1;deletable=1;editable=1;locked=0;connectable=1;" parent="Xi0OJc3CzYUvT2jzZGl6-109" edge="1">
          <mxGeometry width="50" height="50" relative="1" as="geometry">
            <mxPoint x="48" y="106" as="sourcePoint" />
            <mxPoint x="98" y="56" as="targetPoint" />
          </mxGeometry>
        </mxCell>
        <mxCell id="Xi0OJc3CzYUvT2jzZGl6-108" value="Unencrypted" style="endArrow=none;dashed=1;html=1;dashPattern=1 3;strokeWidth=2;rounded=0;movable=1;resizable=1;rotatable=1;deletable=1;editable=1;locked=0;connectable=1;" parent="Xi0OJc3CzYUvT2jzZGl6-109" edge="1">
          <mxGeometry width="50" height="50" relative="1" as="geometry">
            <mxPoint x="144" y="109" as="sourcePoint" />
            <mxPoint x="194" y="59" as="targetPoint" />
          </mxGeometry>
        </mxCell>
        <mxCell id="115" value="Internal Network" style="shape=mxgraph.ibm.box;prType=enterprise;fontStyle=0;verticalAlign=top;align=left;spacingLeft=32;spacingTop=4;fillColor=none;rounded=0;whiteSpace=wrap;html=1;strokeColor=#3700CC;strokeWidth=3;dashed=0;container=0;spacing=-4;collapsible=0;expand=0;recursiveResize=0;fontColor=default;" parent="1" vertex="1">
          <mxGeometry x="-180" y="306.5" width="495" height="270" as="geometry" />
        </mxCell>
        <mxCell id="152" style="edgeStyle=none;rounded=0;html=1;exitX=0.003;exitY=0.616;exitDx=0;exitDy=0;entryX=1;entryY=0.5;entryDx=0;entryDy=0;startArrow=classic;startFill=1;exitPerimeter=0;" parent="1" source="116" target="127" edge="1">
          <mxGeometry relative="1" as="geometry" />
        </mxCell>
        <mxCell id="153" style="edgeStyle=none;rounded=0;html=1;exitX=1;exitY=0.5;exitDx=0;exitDy=0;startArrow=classic;startFill=1;entryX=0.922;entryY=0.002;entryDx=0;entryDy=0;entryPerimeter=0;dashed=1;" parent="1" source="116" target="Xi0OJc3CzYUvT2jzZGl6-115" edge="1">
          <mxGeometry relative="1" as="geometry">
            <mxPoint x="310" y="-210.33333333333326" as="targetPoint" />
            <Array as="points">
              <mxPoint x="298" y="480" />
            </Array>
          </mxGeometry>
        </mxCell>
        <mxCell id="154" value="Potentially&lt;br&gt;Unencrypted" style="edgeLabel;html=1;align=center;verticalAlign=middle;resizable=0;points=[];" parent="153" vertex="1" connectable="0">
          <mxGeometry x="-0.5231" y="-2" relative="1" as="geometry">
            <mxPoint as="offset" />
          </mxGeometry>
        </mxCell>
        <mxCell id="116" value="Windows Virtual Workstations" style="fontStyle=0;verticalAlign=top;align=center;spacingTop=-2;fillColor=none;rounded=0;whiteSpace=wrap;html=1;strokeColor=#4376BB;strokeWidth=1;dashed=0;container=1;collapsible=0;expand=0;recursiveResize=0;" parent="1" vertex="1">
          <mxGeometry x="62" y="398" width="194" height="164" as="geometry" />
        </mxCell>
        <mxCell id="119" value="Frank Workstation" style="sketch=0;aspect=fixed;html=1;points=[];align=center;image;fontSize=12;image=img/lib/mscae/VM_Windows_Non_Azure.svg;strokeColor=#0F5FFF;fillColor=none;" parent="116" vertex="1">
          <mxGeometry x="76" y="53.5" width="50" height="46" as="geometry" />
        </mxCell>
        <mxCell id="124" style="edgeStyle=none;html=1;exitX=0.25;exitY=1;exitDx=0;exitDy=0;entryX=0.5;entryY=0;entryDx=0;entryDy=0;" parent="1" source="125" target="116" edge="1">
          <mxGeometry relative="1" as="geometry" />
        </mxCell>
        <mxCell id="125" value="Windows Terminal Server" style="aspect=fixed;perimeter=ellipsePerimeter;html=1;align=center;shadow=0;dashed=0;spacingTop=3;image;image=img/lib/active_directory/windows_server_2.svg;strokeColor=#0F5FFF;" parent="1" vertex="1">
          <mxGeometry x="147" y="303" width="40" height="50" as="geometry" />
        </mxCell>
        <mxCell id="126" value="" style="shape=mxgraph.ibm.box;prType=public;fontStyle=0;verticalAlign=top;align=left;spacingLeft=32;spacingTop=4;fillColor=none;rounded=0;whiteSpace=wrap;html=1;strokeColor=#08A4FF;strokeWidth=3;dashed=0;container=1;spacing=-4;collapsible=0;expand=0;recursiveResize=0;" parent="1" vertex="1">
          <mxGeometry x="-140.5" y="337.5" width="145" height="119" as="geometry" />
        </mxCell>
        <mxCell id="127" value="&lt;font&gt;ZK Encrypted&lt;br&gt;File Store&lt;br&gt;&lt;/font&gt;" style="aspect=fixed;perimeter=ellipsePerimeter;html=1;align=center;shadow=0;dashed=0;fontColor=default;labelBackgroundColor=none;fontSize=12;spacingTop=3;image;image=img/lib/ibm/data/data_services.svg;" parent="1" vertex="1">
          <mxGeometry x="-96.5" y="474.5" width="50" height="50" as="geometry" />
        </mxCell>
        <mxCell id="128" style="edgeStyle=none;html=1;exitX=0.5;exitY=1;exitDx=0;exitDy=0;fontSize=12;fontColor=#FFFFFF;rounded=0;entryX=0.5;entryY=0;entryDx=0;entryDy=0;" parent="1" source="129" target="127" edge="1">
          <mxGeometry relative="1" as="geometry">
            <mxPoint x="1137.5" y="489.5" as="targetPoint" />
          </mxGeometry>
        </mxCell>
        <mxCell id="129" value="Nextcloud Hub" style="shape=image;verticalLabelPosition=bottom;labelBackgroundColor=default;verticalAlign=top;aspect=fixed;imageAspect=0;image=https://static-00.iconduck.com/assets.00/nextcloud-icon-512x512-quluhp24.png;" parent="1" vertex="1">
          <mxGeometry x="-96.5" y="376.5" width="50" height="50" as="geometry" />
        </mxCell>
        <mxCell id="130" style="edgeStyle=orthogonalEdgeStyle;rounded=0;orthogonalLoop=1;jettySize=auto;html=1;exitX=0.5;exitY=1;exitDx=0;exitDy=0;entryX=0.5;entryY=0;entryDx=0;entryDy=0;" parent="1" source="121" target="129" edge="1">
          <mxGeometry relative="1" as="geometry" />
        </mxCell>
        <mxCell id="131" value="User Login" style="edgeLabel;html=1;align=center;verticalAlign=middle;resizable=0;points=[];" parent="130" vertex="1" connectable="0">
          <mxGeometry x="0.205" y="1" relative="1" as="geometry">
            <mxPoint x="-1" y="-24" as="offset" />
          </mxGeometry>
        </mxCell>
        <mxCell id="132" value="Nextcloud Cluster" style="edgeLabel;html=1;align=center;verticalAlign=middle;resizable=0;points=[];" parent="130" vertex="1" connectable="0">
          <mxGeometry x="0.766" y="2" relative="1" as="geometry">
            <mxPoint x="2" y="-5" as="offset" />
          </mxGeometry>
        </mxCell>
        <mxCell id="138" style="edgeStyle=none;html=1;exitX=0.5;exitY=1;exitDx=0;exitDy=0;entryX=0.5;entryY=0;entryDx=0;entryDy=0;" parent="1" source="72" target="Zk3EBVXWUtb9SHXZOmo2-47" edge="1">
          <mxGeometry relative="1" as="geometry" />
        </mxCell>
        <mxCell id="139" value="VPN Login" style="edgeLabel;html=1;align=center;verticalAlign=middle;resizable=0;points=[];" parent="138" vertex="1" connectable="0">
          <mxGeometry x="0.4669" y="1" relative="1" as="geometry">
            <mxPoint y="-1" as="offset" />
          </mxGeometry>
        </mxCell>
        <mxCell id="140" style="edgeStyle=none;html=1;exitX=0.5;exitY=1;exitDx=0;exitDy=0;" parent="1" source="Zk3EBVXWUtb9SHXZOmo2-47" edge="1">
          <mxGeometry relative="1" as="geometry">
            <mxPoint x="-690" y="127" as="targetPoint" />
          </mxGeometry>
        </mxCell>
        <mxCell id="144" style="edgeStyle=none;rounded=0;html=1;exitX=1;exitY=0.5;exitDx=0;exitDy=0;entryX=0.371;entryY=0;entryDx=0;entryDy=0;entryPerimeter=0;dashed=1;" parent="1" source="Zk3EBVXWUtb9SHXZOmo2-83" target="Xi0OJc3CzYUvT2jzZGl6-115" edge="1">
          <mxGeometry relative="1" as="geometry">
            <Array as="points">
              <mxPoint x="-570" y="188" />
            </Array>
          </mxGeometry>
        </mxCell>
        <mxCell id="145" value="Potentially&lt;br&gt;Unencrypted&lt;br&gt;Connections" style="edgeLabel;html=1;align=center;verticalAlign=middle;resizable=0;points=[];" parent="144" vertex="1" connectable="0">
          <mxGeometry x="0.0916" y="-1" relative="1" as="geometry">
            <mxPoint as="offset" />
          </mxGeometry>
        </mxCell>
        <mxCell id="148" style="edgeStyle=none;rounded=0;html=1;exitX=0.5;exitY=1;exitDx=0;exitDy=0;entryX=0.5;entryY=0;entryDx=0;entryDy=0;startArrow=classic;startFill=1;" parent="1" source="137" target="122" edge="1">
          <mxGeometry relative="1" as="geometry" />
        </mxCell>
        <mxCell id="149" value="VPN Login" style="edgeLabel;html=1;align=center;verticalAlign=middle;resizable=0;points=[];" parent="148" vertex="1" connectable="0">
          <mxGeometry x="0.4623" y="3" relative="1" as="geometry">
            <mxPoint y="1" as="offset" />
          </mxGeometry>
        </mxCell>
        <mxCell id="150" style="edgeStyle=none;rounded=0;html=1;exitX=0.5;exitY=1;exitDx=0;exitDy=0;entryX=0.509;entryY=-0.007;entryDx=0;entryDy=0;entryPerimeter=0;startArrow=classic;startFill=1;" parent="1" source="122" target="134" edge="1">
          <mxGeometry relative="1" as="geometry" />
        </mxCell>
        <mxCell id="151" style="edgeStyle=none;rounded=0;html=1;entryX=0;entryY=0;entryDx=0;entryDy=0;startArrow=classic;startFill=1;" parent="1" source="123" target="125" edge="1">
          <mxGeometry relative="1" as="geometry" />
        </mxCell>
      </root>
    </mxGraphModel>
  </diagram>
</mxfile>
